<svg xmlns="http://www.w3.org/2000/svg" viewBox="-6 -16 230 230" role="img" aria-label="NJH"><style>.a{fill:#2D2B74}.b{fill:#5064A1}@media(prefers-color-scheme:dark){.a{fill:#6E78C6}.b{fill:#9AABDF}}</style><path class="a" fill-rule="evenodd" d="M102.6 197.1 C102.4 197.0 101.7 196.9 101.1 196.8 C100.4 196.8 99.6 196.6 99.2 196.4 C98.8 196.3 98.1 196.0 97.6 195.9 C97.2 195.8 96.6 195.5 96.3 195.3 C96.0 195.0 95.6 194.8 95.3 194.8 C95.1 194.8 94.6 194.6 94.2 194.3 C93.9 194.1 93.5 193.8 93.3 193.8 C92.9 193.8 90.7 192.7 90.1 192.2 C89.9 192.0 89.5 191.8 89.2 191.8 C89.0 191.8 88.6 191.7 88.4 191.4 C88.1 191.2 87.7 190.9 87.3 190.8 C87.0 190.6 86.3 190.2 85.8 189.9 C85.3 189.6 84.6 189.2 84.2 188.9 C83.8 188.7 83.2 188.3 82.8 188.1 C81.1 186.9 79.7 185.9 79.4 185.5 C79.2 185.3 78.8 185.0 78.5 184.9 C76.9 183.8 73.9 181.2 70.8 178.1 C70.3 177.6 69.5 176.9 69.1 176.5 C68.6 176.1 67.9 175.4 67.6 175.0 C67.2 174.6 66.2 173.4 65.2 172.3 C62.3 169.2 61.3 168.1 60.8 167.3 C60.5 166.9 60.0 166.3 59.6 166.0 C58.8 165.1 54.4 160.0 54.3 159.7 C54.2 159.5 53.4 158.6 52.6 157.7 C51.8 156.7 50.6 155.4 50.1 154.7 C45.8 149.2 43.3 147.2 42.4 148.6 C42.1 149.1 42.8 150.6 43.8 151.8 C44.7 152.9 45.5 153.9 45.8 154.4 C45.8 154.5 46.2 154.9 46.5 155.3 C47.7 156.8 48.6 157.9 48.8 158.3 C49.0 158.6 49.4 159.2 49.9 159.8 C50.4 160.3 50.9 160.9 51.1 161.2 C52.2 162.6 53.0 163.7 53.8 164.6 C54.2 165.1 54.8 165.9 55.1 166.2 C56.7 168.4 57.1 168.8 57.9 169.6 C58.3 170.1 59.7 171.6 60.8 173.0 C64.9 177.7 74.0 186.1 76.0 187.2 C76.2 187.3 76.8 187.7 77.3 188.2 C77.8 188.6 78.4 189.0 78.7 189.2 C79.2 189.4 81.1 191.0 81.7 191.7 C82.9 193.1 83.1 194.4 82.2 195.6 C81.3 196.8 80.0 197.0 77.6 196.3 C76.8 196.1 75.9 195.9 75.6 195.8 C75.2 195.8 74.6 195.5 74.3 195.3 C74.0 195.0 73.6 194.8 73.4 194.8 C73.1 194.8 72.7 194.6 72.4 194.4 C72.2 194.2 71.7 193.9 71.4 193.8 C71.1 193.8 70.7 193.6 70.5 193.4 C70.3 193.3 69.5 192.8 68.7 192.4 C67.9 192.0 67.1 191.5 66.9 191.4 C66.8 191.2 66.4 190.9 66.1 190.8 C64.9 190.0 64.2 189.5 64.2 189.3 C64.2 189.3 63.8 189.0 63.5 188.8 C62.6 188.4 61.9 187.9 60.5 186.7 C59.9 186.2 58.7 185.3 57.8 184.5 C55.5 182.7 49.0 176.2 45.9 172.7 C44.4 171.0 42.7 169.1 42.1 168.4 C40.6 166.7 38.3 164.0 38.3 163.8 C38.3 163.7 38.1 163.4 37.8 163.0 C36.5 161.7 34.5 159.1 34.2 158.5 C34.0 158.3 33.6 157.7 33.2 157.2 C32.8 156.8 32.4 156.1 32.3 155.8 C32.1 155.5 31.8 155.0 31.6 154.7 C30.9 154.0 30.2 152.9 28.8 150.5 C28.3 149.7 27.8 149.0 27.1 147.9 C26.9 147.6 26.5 146.8 26.2 146.3 C25.9 145.8 25.6 145.3 25.5 145.3 C25.4 145.2 25.3 144.9 25.2 144.5 C25.0 143.8 22.4 141.2 21.9 141.2 C20.5 141.2 20.8 144.3 22.2 146.1 C22.7 146.6 23.4 147.9 23.8 148.7 C23.9 149.0 24.2 149.5 24.4 149.7 C24.7 150.0 24.8 150.3 24.8 150.4 C24.8 150.5 25.1 150.9 25.3 151.3 C25.6 151.6 25.8 152.0 25.8 152.1 C25.8 152.2 26.0 152.5 26.2 152.8 C26.7 153.3 27.4 154.5 27.8 155.4 C28.0 155.8 28.2 156.2 28.4 156.3 C28.7 156.5 30.3 158.6 30.8 159.4 C31.3 160.3 36.1 165.8 37.3 166.9 C41.6 170.6 42.4 172.6 40.2 174.3 C38.8 175.4 34.2 174.6 34.2 173.4 C34.2 173.3 33.9 173.1 33.6 172.9 C32.6 172.3 29.0 169.2 26.2 166.3 C23.2 163.4 23.0 163.1 21.2 160.8 C18.5 157.5 18.1 157.0 17.6 156.2 C17.3 155.7 16.8 155.1 16.7 154.8 C16.0 154.0 15.5 153.2 15.2 152.6 C15.0 152.2 14.8 151.8 14.6 151.7 C14.5 151.6 14.0 150.9 13.6 150.2 C13.2 149.5 12.8 148.7 12.5 148.4 C12.3 148.0 12.2 147.7 12.2 147.5 C12.2 147.4 12.0 147.0 11.8 146.8 C11.5 146.5 11.3 146.0 11.2 145.7 C11.1 145.4 10.8 144.9 10.6 144.7 C10.4 144.4 10.2 143.9 10.2 143.7 C10.2 143.5 9.9 142.9 9.7 142.5 C9.4 142.1 9.2 141.7 9.2 141.5 C9.2 141.4 9.0 141.0 8.8 140.5 C8.2 139.5 7.5 137.8 7.2 136.8 C7.1 136.3 6.9 135.7 6.7 135.4 C6.5 135.1 6.3 134.5 6.2 134.1 C6.2 133.6 5.9 132.9 5.7 132.5 C5.5 132.1 5.3 131.4 5.2 131.0 C5.2 130.5 5.0 129.8 4.8 129.5 C4.7 129.2 4.4 128.2 4.2 127.3 C4.0 126.5 3.7 125.3 3.5 124.8 C3.3 124.3 3.2 123.5 3.2 123.0 C3.2 122.6 3.1 122.0 3.0 121.7 C2.6 120.8 2.2 118.7 2.2 118.0 C2.2 117.6 2.0 116.7 1.8 116.0 C1.6 115.2 1.4 113.8 1.3 112.2 C1.2 110.9 1.1 108.8 0.9 107.7 C0.8 106.5 0.6 105.2 0.6 104.8 C0.5 104.4 0.4 103.9 0.2 103.8 C-0.1 103.5 -0.1 96.6 0.2 96.3 C0.4 96.2 0.5 96.0 0.6 95.7 C0.9 94.2 1.0 93.1 1.2 90.7 C1.4 87.7 1.6 86.1 1.9 85.2 C2.1 84.9 2.2 84.3 2.2 83.9 C2.2 83.4 2.3 82.6 2.4 82.0 C2.6 81.4 2.9 80.1 3.1 79.1 C3.3 78.1 3.6 77.0 3.8 76.6 C4.0 76.2 4.2 75.5 4.2 75.0 C4.3 74.5 4.5 73.7 4.6 73.4 C4.8 73.0 5.0 72.3 5.1 71.8 C5.2 71.3 5.5 70.6 5.7 70.2 C5.8 69.8 6.1 69.2 6.2 68.7 C6.3 68.3 6.5 67.7 6.8 67.3 C7.0 67.0 7.2 66.5 7.2 66.1 C7.3 65.8 7.5 65.1 7.8 64.7 C8.0 64.3 8.2 63.8 8.2 63.7 C8.2 63.5 8.4 63.0 8.7 62.6 C8.9 62.1 9.2 61.6 9.2 61.5 C9.2 61.3 9.4 60.9 9.7 60.5 C9.9 60.1 10.2 59.6 10.2 59.4 C10.2 59.2 10.4 58.8 10.6 58.5 C10.8 58.3 11.1 57.7 11.3 57.3 C11.4 56.9 11.6 56.5 11.7 56.3 C11.9 56.2 12.1 55.7 12.3 55.3 C12.5 54.9 12.9 54.2 13.1 53.8 C13.4 53.4 13.7 52.8 13.9 52.5 C14.1 52.2 14.4 51.7 14.7 51.4 C15.0 51.1 15.2 50.7 15.2 50.6 C15.2 50.5 15.5 50.0 15.8 49.4 C16.5 48.5 16.7 48.1 17.7 46.8 C18.3 45.9 19.3 44.5 19.8 43.9 C20.1 43.6 20.7 42.8 21.2 42.2 C24.0 38.5 29.1 33.0 32.3 30.2 C33.4 29.1 34.9 27.8 35.6 27.2 C37.3 25.6 38.8 24.3 39.2 24.0 C39.5 23.9 39.9 23.5 40.3 23.3 C40.7 23.1 41.2 22.7 41.4 22.5 C41.6 22.3 42.1 21.9 42.4 21.6 C42.8 21.4 43.4 20.9 43.7 20.7 C44.0 20.5 44.5 20.1 44.8 20.0 C45.0 19.8 45.6 19.4 46.0 19.1 C46.4 18.8 47.0 18.4 47.3 18.2 C47.7 18.1 48.2 17.8 48.4 17.5 C48.7 17.3 49.3 16.9 49.8 16.6 C50.3 16.3 51.0 15.9 51.3 15.6 C51.6 15.4 52.1 15.2 52.3 15.2 C52.5 15.2 52.8 15.0 53.0 14.8 C53.3 14.6 53.7 14.2 54.1 14.0 C54.5 13.8 55.3 13.3 55.8 13.1 C56.3 12.8 56.9 12.4 57.2 12.3 C58.4 11.8 58.6 11.6 59.0 11.4 C59.2 11.3 59.7 11.1 60.0 10.9 C60.3 10.8 60.8 10.6 61.0 10.4 C61.2 10.3 61.9 10.0 62.5 9.7 C63.1 9.4 64.1 8.9 64.8 8.6 C65.5 8.3 66.2 8.0 66.3 8.0 C66.4 8.0 66.8 7.8 67.3 7.6 C67.7 7.4 68.2 7.2 68.4 7.2 C68.6 7.2 69.0 7.0 69.3 6.8 C69.6 6.5 70.0 6.3 70.2 6.3 C70.4 6.3 71.1 6.1 71.8 5.7 C72.5 5.4 73.3 5.2 73.5 5.2 C73.6 5.2 74.2 5.0 74.7 4.8 C75.2 4.5 76.0 4.3 76.5 4.2 C76.9 4.1 77.6 3.9 78.0 3.7 C78.4 3.5 79.1 3.2 79.6 3.1 C80.2 3.1 81.1 2.8 81.8 2.6 C82.4 2.4 83.7 2.2 84.6 2.2 C85.5 2.1 86.9 1.9 87.7 1.8 C90.8 1.2 95.8 1.0 96.5 1.4 C97.8 2.3 98.4 4.9 97.5 6.0 C97.1 6.6 94.8 7.8 94.3 7.8 C94.1 7.8 93.5 8.1 92.9 8.3 C92.4 8.6 91.8 8.8 91.6 8.8 C91.4 8.8 90.9 9.1 90.5 9.3 C90.1 9.6 89.6 9.8 89.4 9.8 C89.2 9.8 88.8 10.1 88.4 10.3 C88.1 10.6 87.7 10.8 87.5 10.8 C87.3 10.8 86.9 11.1 86.5 11.4 C86.2 11.7 85.5 12.1 85.0 12.4 C84.5 12.7 83.9 13.1 83.6 13.3 C83.1 13.8 82.7 14.0 81.6 14.8 C81.2 15.0 80.8 15.3 80.8 15.4 C80.7 15.5 80.1 16.0 79.6 16.5 C79.1 16.9 77.8 18.2 76.7 19.4 C74.2 22.1 74.1 22.1 73.8 22.8 C73.1 23.8 72.5 24.6 72.3 24.8 C72.2 24.8 72.0 25.2 71.8 25.6 C71.6 25.9 71.2 26.7 70.8 27.3 C70.5 27.9 69.8 29.1 69.4 30.0 C69.0 30.9 68.5 31.9 68.2 32.4 C68.0 32.8 67.8 33.3 67.8 33.5 C67.8 33.6 67.6 34.1 67.3 34.4 C67.0 34.9 66.8 35.2 66.8 35.6 C66.8 36.0 66.6 36.7 66.4 37.2 C66.2 37.7 65.9 38.5 65.7 39.0 C65.6 39.5 65.4 40.4 65.2 41.1 C65.0 41.7 64.8 42.7 64.7 43.3 C64.6 43.9 64.4 45.1 64.2 45.8 C63.8 47.4 63.7 52.6 64.0 53.2 C64.2 53.6 64.8 56.6 64.8 57.3 C64.8 57.7 65.1 58.6 65.3 59.5 C65.6 60.4 65.8 61.2 65.8 61.4 C65.8 61.6 66.1 62.2 66.3 62.7 C66.6 63.3 66.8 63.9 66.8 64.2 C66.8 64.5 67.0 65.0 67.2 65.2 C67.4 65.5 67.6 66.0 67.8 66.5 C67.9 66.9 68.1 67.3 68.2 67.5 C68.4 67.6 68.6 68.1 68.7 68.5 C68.9 68.9 69.1 69.4 69.3 69.6 C69.5 69.9 69.9 70.8 70.3 71.6 C70.7 72.4 71.2 73.3 71.4 73.6 C71.7 73.8 71.8 74.2 71.8 74.3 C71.8 74.5 72.0 74.9 72.3 75.2 C72.9 75.9 73.8 77.4 73.8 77.6 C73.8 77.7 74.0 78.0 74.2 78.2 C74.5 78.5 74.9 79.1 75.2 79.6 C75.5 80.1 76.0 80.8 76.3 81.2 C76.6 81.6 76.8 81.9 76.8 82.0 C76.8 82.1 77.0 82.4 77.3 82.7 C77.5 83.0 77.9 83.5 78.0 83.8 C78.2 84.0 78.6 84.6 78.9 85.0 C79.2 85.4 79.7 86.1 79.8 86.5 C80.0 86.8 80.3 87.2 80.3 87.2 C80.4 87.2 80.7 87.4 80.9 87.8 C81.1 88.1 81.6 88.8 81.9 89.2 C82.2 89.6 82.6 90.1 82.8 90.4 C82.9 90.7 83.2 91.1 83.4 91.4 C84.0 92.0 85.1 94.0 85.7 95.3 C86.0 95.8 86.2 96.2 86.3 96.2 C86.4 96.2 86.7 96.5 86.9 97.0 C87.1 97.4 87.4 97.9 87.5 98.1 C87.7 98.4 87.8 98.7 87.8 98.8 C87.8 99.0 88.1 99.5 88.3 100.1 C88.6 100.6 88.8 101.2 88.8 101.4 C88.8 101.6 89.1 102.1 89.3 102.5 C89.6 102.9 89.8 103.4 89.8 103.5 C89.8 103.7 90.0 104.3 90.2 104.9 C90.5 105.5 90.7 106.4 90.8 106.9 C90.8 107.4 91.0 108.0 91.1 108.2 C92.2 110.4 92.6 123.9 91.6 125.8 C89.7 129.5 82.9 130.2 82.2 126.8 C82.2 126.6 82.0 126.2 81.8 125.8 C81.7 125.5 81.4 124.5 81.3 123.7 C81.2 122.8 81.0 121.6 80.7 121.0 C80.5 120.4 80.3 119.5 80.2 119.1 C80.2 118.6 79.9 117.9 79.6 117.5 C79.4 117.1 79.2 116.6 79.2 116.4 C79.2 116.2 79.0 115.9 78.8 115.6 C78.7 115.4 78.4 114.8 78.2 114.4 C78.0 114.0 77.7 113.4 77.5 113.2 C77.3 113.0 77.2 112.7 77.2 112.5 C77.2 112.3 76.9 111.9 76.6 111.5 C76.3 111.2 75.9 110.6 75.7 110.2 C74.4 108.0 72.1 105.8 71.1 105.8 C70.3 105.8 67.4 108.4 66.7 109.7 C66.6 110.0 66.3 110.4 66.1 110.6 C66.0 110.9 65.8 111.2 65.8 111.4 C65.8 111.6 65.6 112.3 65.4 113.0 C64.9 114.5 64.9 116.9 65.5 118.6 C65.7 119.1 65.8 119.8 65.8 120.2 C65.8 120.5 66.0 121.0 66.2 121.3 C66.5 121.7 66.7 122.2 66.8 122.8 C66.8 123.4 67.0 124.0 67.4 124.5 C67.6 124.9 67.8 125.4 67.8 125.5 C67.8 125.8 68.7 127.7 69.3 129.0 C69.5 129.3 69.7 129.8 69.7 130.1 C69.8 130.4 70.1 130.9 70.3 131.3 C70.6 131.6 70.8 132.1 70.8 132.3 C70.8 132.5 71.0 132.9 71.2 133.1 C71.6 133.5 72.6 135.2 73.6 137.2 C73.8 137.6 74.2 138.1 74.4 138.4 C74.8 138.9 75.3 139.7 75.8 140.7 C76.0 141.0 76.2 141.4 76.3 141.4 C76.4 141.5 76.9 142.1 77.4 142.9 C77.9 143.6 78.6 144.6 78.9 145.0 C79.2 145.4 79.6 146.0 79.8 146.2 C79.9 146.5 80.5 147.2 81.0 147.9 C82.3 149.4 83.6 151.0 83.8 151.3 C83.8 151.5 84.6 152.3 85.3 153.2 C87.8 155.9 90.5 158.9 91.3 159.8 C91.5 160.1 92.5 161.1 93.3 162.0 C94.2 162.9 95.4 164.1 95.9 164.7 C100.0 169.1 101.0 170.2 102.7 172.0 C103.7 173.1 104.7 174.3 104.9 174.6 C105.1 174.9 105.3 175.2 105.4 175.2 C105.7 175.2 106.5 177.4 106.6 178.2 C106.6 181.9 101.3 182.6 97.4 179.3 C97.1 179.1 96.7 178.8 96.4 178.6 C96.1 178.5 95.6 178.1 95.2 177.9 C94.9 177.6 94.2 177.2 93.9 177.0 C93.5 176.7 93.2 176.4 93.2 176.4 C93.2 176.3 92.9 176.1 92.6 175.9 C92.3 175.8 91.7 175.3 91.2 174.9 C90.8 174.6 90.2 174.0 89.8 173.8 C89.5 173.6 88.9 173.0 88.4 172.6 C88.0 172.2 87.5 171.8 87.5 171.8 C86.8 171.8 76.2 161.6 74.0 158.9 C73.5 158.3 72.6 157.2 72.0 156.5 C68.8 152.7 68.2 151.8 68.2 151.6 C68.2 151.5 67.8 151.0 67.3 150.5 C66.9 150.0 66.3 149.3 66.1 149.0 C65.4 147.6 63.4 145.1 62.2 144.0 C61.5 143.3 60.5 143.8 60.2 145.0 C60.1 145.4 60.8 146.9 61.4 147.7 C62.2 148.6 63.8 150.9 63.8 151.0 C63.8 151.1 64.3 151.7 65.3 153.1 C66.2 154.1 67.4 155.8 67.8 156.4 C67.9 156.7 68.9 157.9 69.8 159.0 C70.8 160.2 71.7 161.2 71.8 161.4 C71.9 161.6 72.1 161.9 72.2 162.0 C72.3 162.2 73.6 163.5 75.1 165.1 C76.5 166.6 78.7 168.9 79.9 170.0 C83.9 173.8 83.9 173.8 86.7 175.8 C87.2 176.2 88.0 176.8 88.4 177.1 C88.8 177.4 89.3 177.8 89.6 177.9 C89.9 178.1 90.3 178.4 90.6 178.7 C90.9 179.0 91.3 179.2 91.4 179.2 C91.5 179.2 91.9 179.4 92.2 179.6 C93.1 180.3 94.8 181.3 96.4 182.2 C98.0 183.0 100.4 184.4 100.9 184.8 C101.2 185.0 101.5 185.2 101.7 185.2 C101.9 185.2 102.3 185.4 102.7 185.7 C103.0 185.9 103.4 186.2 103.5 186.2 C103.6 186.2 104.1 186.4 104.5 186.7 C104.9 186.9 105.3 187.2 105.5 187.2 C106.3 187.2 108.8 189.5 108.8 190.3 C108.8 190.5 109.0 191.0 109.2 191.3 C109.8 192.6 109.3 195.0 108.0 196.1 C106.9 197.1 103.6 197.7 102.6 197.1 Z M154.6 152.8 C154.4 152.6 154.5 143.6 154.6 143.5 C155.0 143.4 155.1 144.5 155.2 148.4 C155.2 152.8 155.1 153.6 154.6 152.8 Z"/><path class="b" fill-rule="evenodd" d="M121.2 196.7 L120.0 195.4 L120.0 194.0 C120.0 193.2 120.1 192.5 120.1 192.4 C120.5 191.9 121.7 191.0 122.1 191.0 C122.3 191.0 122.7 190.8 123.1 190.6 C123.5 190.3 124.0 190.1 124.4 190.0 C124.7 189.9 125.3 189.6 125.6 189.4 C126.0 189.2 126.5 189.0 126.9 189.0 C127.3 189.0 127.6 188.9 128.0 188.6 C128.2 188.4 128.7 188.1 129.1 188.0 C129.5 187.9 129.9 187.7 130.1 187.5 C130.2 187.3 130.7 187.1 131.0 187.0 C131.3 186.9 131.8 186.6 132.1 186.4 C133.0 185.6 133.6 185.2 134.1 185.0 C134.5 184.9 135.1 184.5 135.6 184.0 C136.5 183.1 137.7 182.2 138.3 182.0 C138.5 181.9 138.9 181.5 139.1 181.1 C139.3 180.7 140.3 179.6 141.2 178.6 C143.6 176.1 145.0 174.5 145.0 174.3 C145.0 174.0 146.1 172.4 146.6 171.9 C146.8 171.7 147.0 171.4 147.0 171.2 C147.0 171.0 147.2 170.6 147.4 170.2 C147.7 169.9 148.0 169.4 148.0 169.1 C148.1 168.8 148.4 168.4 148.5 168.2 C148.7 168.0 148.9 167.5 149.0 167.2 C149.1 166.8 149.4 166.2 149.6 166.0 C149.9 165.6 150.0 165.3 150.0 164.9 C150.0 164.5 150.2 163.9 150.5 163.4 C150.7 163.0 151.0 162.3 151.1 162.0 C151.1 161.7 151.3 161.3 151.5 161.0 C151.8 160.8 151.9 160.4 152.0 159.4 C152.1 158.7 152.3 157.9 152.5 157.4 C152.8 156.8 153.0 156.2 153.0 155.2 C153.1 154.2 153.2 153.7 153.6 153.1 L154.0 152.4 L154.0 148.5 C154.0 144.5 154.0 144.4 153.4 143.6 C153.2 143.3 153.1 142.8 153.0 141.3 C152.9 139.6 152.9 139.3 152.5 138.8 C152.1 138.3 152.0 137.9 152.0 137.2 C152.0 136.5 151.9 136.3 151.5 135.7 C151.1 135.3 151.0 135.0 151.0 134.3 C151.0 133.7 150.9 133.4 150.5 132.9 C150.2 132.6 150.0 132.1 150.0 131.9 C150.0 131.7 149.8 131.3 149.5 130.8 C149.2 130.4 149.0 130.0 149.0 129.8 C149.0 129.6 148.8 129.1 148.5 128.7 C148.2 128.3 148.0 127.9 148.0 127.7 C148.0 127.6 147.8 127.3 147.5 126.9 C147.2 126.6 147.0 126.1 147.0 125.9 C147.0 125.7 146.7 125.1 146.2 124.6 C145.8 124.0 145.3 123.2 145.1 122.8 C144.9 122.4 144.7 121.9 144.5 121.8 C144.3 121.6 144.1 121.2 144.0 120.9 C143.9 120.6 143.5 119.9 143.0 119.4 C142.6 118.8 142.1 118.2 142.0 117.9 C141.9 117.6 141.5 116.9 141.0 116.4 C140.6 115.8 140.2 115.2 140.1 115.0 C140.0 114.8 139.6 114.2 139.1 113.6 C138.0 112.4 137.4 111.5 137.0 110.7 C136.8 110.3 136.6 110.0 136.5 110.0 C136.4 110.0 135.0 108.0 135.0 107.8 C135.0 107.7 134.5 107.1 134.0 106.5 C133.4 105.7 133.0 105.2 133.0 104.9 C133.0 104.7 132.8 104.3 132.6 104.1 C132.2 103.7 131.6 102.8 131.1 101.7 C130.8 101.2 130.5 100.6 130.3 100.4 C130.1 100.1 130.0 99.8 130.0 99.6 C130.0 99.4 129.8 99.0 129.6 98.6 C129.3 98.3 129.1 97.6 129.0 97.2 C128.9 96.7 128.7 96.2 128.4 95.8 C128.2 95.5 128.0 95.1 128.0 94.9 C128.0 94.6 127.8 94.1 127.6 93.7 C127.2 93.1 127.1 92.6 127.0 91.8 C127.0 90.9 126.8 90.4 126.5 89.8 C126.1 89.1 126.1 88.9 126.0 86.2 C126.0 83.9 125.9 83.3 125.7 82.8 C125.3 82.2 125.4 80.8 125.8 79.8 C125.9 79.5 126.0 78.1 126.0 76.0 L126.0 72.7 L126.6 72.0 C128.7 69.4 132.6 68.0 133.8 69.3 C133.9 69.5 134.4 69.9 134.8 70.1 C135.4 70.4 135.7 70.7 136.0 71.3 C136.2 71.7 136.5 72.3 136.7 72.7 C136.9 73.1 137.0 73.6 137.0 74.9 C137.0 76.4 137.0 76.5 137.5 77.1 C137.9 77.6 138.0 77.9 138.0 78.6 C138.0 79.3 138.1 79.6 138.5 80.2 C138.8 80.6 139.0 81.1 139.0 81.3 C139.0 81.5 139.2 82.0 139.4 82.3 C139.7 82.7 139.9 83.4 140.0 83.8 C140.1 84.3 140.2 84.8 140.4 84.9 C140.8 85.2 141.8 86.6 142.0 87.2 C142.1 87.6 142.3 87.9 142.4 88.0 C142.7 88.1 143.7 89.5 144.0 90.1 C145.1 92.9 147.9 92.6 150.3 89.4 C150.7 88.9 151.3 88.2 151.5 88.0 C151.9 87.6 152.0 87.3 152.0 86.8 C152.0 86.2 152.1 85.9 152.5 85.3 C153.2 84.3 153.2 81.8 152.6 80.8 C152.2 80.3 152.1 79.9 152.0 78.8 C151.9 77.6 151.8 77.3 151.5 76.8 C151.1 76.4 151.0 76.1 151.0 75.4 C151.0 74.6 150.9 74.4 150.5 73.9 C150.2 73.6 150.0 73.2 150.0 72.9 C150.0 72.6 149.8 72.1 149.5 71.7 C149.2 71.3 149.0 70.8 149.0 70.7 C149.0 70.5 148.8 70.0 148.5 69.6 C148.2 69.1 148.0 68.5 148.0 68.1 C148.0 67.7 147.9 67.4 147.5 67.0 C147.2 66.7 147.0 66.3 147.0 66.0 C147.0 65.7 146.8 65.3 146.5 65.0 C146.1 64.5 145.7 63.9 145.1 62.8 C144.9 62.5 144.7 62.1 144.5 61.9 C144.3 61.7 144.1 61.3 144.0 60.9 C143.9 60.5 143.7 60.1 143.5 60.0 C143.4 59.9 142.9 59.3 142.5 58.6 C142.1 57.8 141.7 57.2 141.6 57.1 C141.1 56.7 140.2 55.4 140.0 54.8 C139.9 54.5 139.5 53.9 139.1 53.5 C138.4 52.8 137.5 51.6 137.1 50.8 C137.0 50.7 136.5 50.1 136.0 49.5 C133.5 46.7 132.6 45.6 132.2 45.0 C131.8 44.4 130.5 42.9 125.8 38.0 C124.0 36.1 122.5 34.4 122.3 34.2 C122.2 33.9 120.3 31.8 118.1 29.6 C111.6 22.9 110.2 20.7 111.6 19.1 C111.8 18.8 112.0 18.3 112.2 18.0 C112.5 17.2 113.1 17.0 115.0 17.0 C118.3 17.0 118.0 16.9 119.4 18.0 C120.0 18.5 120.7 19.0 120.9 19.0 C121.1 19.0 121.8 19.4 122.4 19.9 C123.0 20.4 123.7 20.9 124.0 21.1 C124.3 21.2 125.3 21.9 126.1 22.6 C127.0 23.4 127.8 24.0 128.0 24.1 C128.5 24.2 129.0 24.7 131.6 27.1 C132.6 28.1 133.7 29.0 134.0 29.1 C135.0 29.5 143.2 37.8 143.8 39.0 C144.0 39.3 145.0 40.4 146.0 41.5 C147.0 42.6 148.1 43.8 148.4 44.3 C148.7 44.8 149.3 45.7 149.8 46.3 C151.1 47.8 151.6 48.5 151.9 49.2 C152.1 49.5 152.5 50.1 152.9 50.5 C153.7 51.3 154.5 52.4 154.9 53.1 C155.2 53.8 156.0 54.2 156.6 54.1 C157.7 53.8 157.5 52.1 156.2 50.5 C155.7 49.9 155.2 49.1 155.0 48.8 C154.8 48.4 154.4 47.8 154.1 47.5 C153.7 47.2 153.3 46.5 153.1 46.1 C152.9 45.6 152.3 44.9 151.9 44.4 C151.0 43.5 150.0 42.1 150.0 41.8 C150.0 41.7 149.5 41.1 148.9 40.4 C147.3 38.8 145.6 36.7 145.3 36.1 C145.0 35.5 134.6 25.0 134.3 25.0 C134.0 25.0 132.2 23.6 130.8 22.3 C130.1 21.7 129.3 21.1 129.0 21.0 C128.8 20.9 128.0 20.4 127.4 19.9 C126.8 19.4 126.2 19.0 125.9 19.0 C125.7 19.0 125.4 18.8 125.2 18.6 C125.0 18.4 124.5 18.1 124.2 18.0 C123.9 17.9 123.4 17.6 123.1 17.4 C122.9 17.2 122.6 17.0 122.5 17.0 C122.2 17.0 120.7 16.1 120.0 15.5 C119.7 15.2 119.3 15.0 119.1 15.0 C118.9 15.0 118.4 14.8 118.1 14.5 C117.7 14.2 117.3 14.0 117.2 14.0 C117.0 14.0 116.6 13.8 116.2 13.5 C115.9 13.2 115.5 13.0 115.3 13.0 C115.2 13.0 114.9 12.9 114.6 12.7 C114.4 12.5 113.8 12.2 113.3 11.9 C111.2 10.9 109.0 8.9 109.0 8.0 C109.0 7.6 108.8 7.2 108.6 6.8 C108.0 6.1 108.0 4.9 108.5 4.3 C108.7 4.0 109.0 3.5 109.1 3.2 C109.4 2.3 110.3 1.4 111.2 1.2 C112.4 0.8 117.4 1.0 118.6 1.5 C119.2 1.8 119.8 2.0 120.0 2.0 C120.2 2.0 120.5 2.2 120.8 2.4 C121.1 2.7 121.7 2.9 122.2 3.0 C122.6 3.1 123.2 3.3 123.5 3.5 C123.7 3.7 124.2 3.9 124.5 4.0 C124.8 4.0 125.4 4.3 125.7 4.6 C126.1 4.8 126.5 5.0 126.7 5.0 C126.9 5.0 128.0 5.7 129.0 6.5 C129.3 6.8 129.7 7.0 129.9 7.0 C130.1 7.0 130.5 7.2 130.8 7.4 C131.1 7.7 131.6 7.9 131.9 8.0 C132.2 8.1 132.6 8.4 132.9 8.6 C133.1 8.8 133.5 9.0 133.6 9.0 C133.9 9.0 135.4 10.0 136.4 11.0 C137.0 11.6 137.6 12.0 137.8 12.0 C138.2 12.0 138.9 12.6 141.0 14.5 C141.8 15.3 142.8 16.0 143.0 16.1 C144.4 16.7 153.9 26.3 154.8 27.9 C155.0 28.2 156.1 29.6 157.4 30.9 C160.1 33.8 161.5 35.4 161.9 36.1 C162.0 36.4 162.6 37.1 163.2 37.7 C164.8 39.4 166.6 41.5 166.9 42.1 C167.0 42.4 167.8 43.3 168.6 44.2 C170.6 46.3 171.6 47.5 171.9 48.1 C172.1 48.5 172.4 48.8 172.9 49.0 C173.3 49.2 173.8 49.5 174.0 49.7 C174.8 50.3 175.7 49.6 175.2 48.7 C175.1 48.5 175.0 48.2 175.0 48.0 C175.0 47.7 174.7 47.3 172.6 44.8 C171.9 44.0 171.2 43.1 171.0 42.8 C170.8 42.4 170.4 41.8 170.0 41.4 C169.6 41.1 169.0 40.3 168.7 39.8 C168.4 39.2 167.5 38.1 166.8 37.3 C166.1 36.4 165.3 35.4 165.1 35.1 C164.9 34.7 164.4 34.0 163.9 33.4 C162.4 31.8 160.4 29.5 160.2 29.0 C159.5 27.7 146.2 14.4 145.2 13.9 C144.9 13.8 143.8 12.9 142.6 11.9 C141.3 10.8 140.2 10.0 140.1 10.0 C139.7 10.0 136.8 7.4 135.6 6.0 C134.6 4.8 135.4 2.0 136.6 2.0 C136.7 2.0 136.9 1.9 137.0 1.8 C137.4 1.3 138.1 1.2 138.7 1.5 C139.0 1.7 139.8 1.8 140.8 1.9 C142.1 2.0 142.3 2.1 142.9 2.5 C143.2 2.8 143.6 3.0 144.0 3.0 C144.3 3.0 144.6 3.1 144.8 3.3 C145.0 3.5 145.5 3.8 145.9 3.9 C146.4 4.0 146.9 4.3 147.1 4.6 C147.3 4.8 147.7 5.0 148.0 5.0 C148.3 5.0 148.6 5.2 148.8 5.4 C149.1 5.7 149.5 5.9 149.9 6.0 C150.4 6.1 150.9 6.5 151.6 7.1 C152.2 7.7 152.7 8.0 152.9 8.0 C153.3 8.0 154.1 8.6 155.1 9.6 C155.3 9.8 155.6 10.0 155.7 10.0 C156.1 10.0 157.0 10.8 159.4 13.0 C160.7 14.1 161.7 15.0 161.8 15.0 C162.4 15.0 171.2 23.8 171.8 24.9 C172.0 25.2 173.4 26.8 174.9 28.4 C176.5 30.0 178.0 31.8 178.4 32.3 C178.7 32.8 179.6 33.9 180.3 34.8 C181.0 35.6 181.7 36.6 181.8 36.9 C182.0 37.2 182.6 38.0 183.1 38.6 C184.6 40.3 185.6 41.5 185.9 42.2 C186.1 42.5 186.5 43.2 187.0 43.7 C187.4 44.1 187.8 44.8 187.9 45.1 C188.1 45.4 188.4 45.9 188.6 46.2 C188.8 46.5 189.0 46.8 189.0 47.0 C189.0 47.2 189.4 47.8 189.9 48.4 C190.4 49.0 190.9 49.7 191.0 50.1 C191.1 50.5 191.3 50.9 191.4 51.0 C191.7 51.1 192.2 51.9 193.3 54.0 C194.5 56.4 195.9 57.5 196.7 56.7 C197.1 56.2 197.1 55.6 196.6 54.7 C196.4 54.3 196.1 53.7 195.9 53.3 C195.8 53.0 195.4 52.3 195.1 51.8 C194.8 51.2 194.4 50.4 194.2 50.0 C194.0 49.6 193.7 49.1 193.5 48.9 C193.3 48.7 193.1 48.3 193.0 48.0 C192.9 47.6 192.5 46.9 192.1 46.5 C191.7 46.0 191.3 45.3 191.1 45.0 C191.0 44.7 190.5 43.9 190.1 43.4 C189.7 42.9 189.2 42.2 189.1 41.8 C188.9 41.5 188.5 40.9 188.2 40.5 C187.8 40.1 187.4 39.4 187.2 39.1 C186.8 38.3 184.1 35.4 180.1 31.5 C177.5 28.9 177.2 28.5 177.0 27.8 C176.9 27.4 176.7 26.8 176.5 26.4 C175.5 24.5 179.8 22.0 181.7 23.4 C182.0 23.7 182.5 23.9 182.9 24.0 C183.4 24.1 184.0 24.6 185.0 25.5 C185.8 26.3 186.7 27.0 187.1 27.2 C188.0 27.7 195.4 35.1 195.8 35.9 C196.0 36.3 196.8 37.3 197.6 38.1 C198.3 38.9 199.2 40.0 199.5 40.6 C199.8 41.1 200.5 42.0 201.0 42.6 C201.5 43.1 202.3 44.2 202.7 44.9 C203.0 45.6 203.5 46.2 203.6 46.3 C203.7 46.4 203.9 46.8 204.0 47.2 C204.1 47.5 204.3 47.9 204.5 48.0 C204.7 48.1 204.8 48.4 204.8 48.6 C204.8 49.0 204.8 49.0 204.6 48.8 C204.3 48.6 203.8 48.7 203.8 49.2 C203.8 49.6 204.3 49.8 204.6 49.5 C204.8 49.3 204.9 49.3 205.1 49.6 C205.3 49.8 205.7 50.3 206.0 50.7 C206.4 51.1 206.8 51.8 206.9 52.2 C207.1 52.6 207.3 53.1 207.5 53.2 C207.7 53.4 207.9 53.9 208.0 54.2 C208.1 54.5 208.3 55.0 208.5 55.2 C208.7 55.4 208.9 55.8 208.9 56.0 C209.0 56.2 209.2 56.8 209.5 57.4 C209.8 57.9 210.0 58.6 210.0 58.9 C210.0 59.3 210.2 59.7 210.5 60.1 C210.8 60.4 211.0 60.9 211.0 61.2 C211.0 61.4 211.2 61.9 211.5 62.3 C211.8 62.9 212.0 63.3 212.0 63.8 C212.0 64.2 212.2 64.7 212.5 65.2 C212.9 65.9 213.0 66.3 213.0 66.9 C213.0 67.5 213.1 67.9 213.4 68.4 C213.8 68.9 213.9 69.3 214.0 70.4 C214.1 71.5 214.2 71.9 214.5 72.3 C214.8 72.7 214.9 73.1 215.0 74.3 C215.1 75.3 215.2 75.9 215.5 76.3 C215.8 77.0 216.0 78.4 216.0 80.2 C216.0 81.2 216.1 81.5 216.5 82.2 C216.9 82.9 216.9 83.1 217.0 86.0 L217.1 89.0 L217.5 89.4 L218.0 89.8 L218.0 97.9 L218.0 106.0 L217.5 106.6 C217.1 107.1 217.1 107.1 217.0 109.9 C216.9 112.3 216.8 112.7 216.4 113.6 C216.1 114.4 216.0 115.0 216.0 115.7 C216.0 116.8 215.7 118.1 215.3 119.0 C215.1 119.3 215.0 119.9 215.0 120.4 C215.0 121.1 214.9 121.4 214.5 121.9 C214.2 122.2 214.0 122.6 213.9 122.7 C213.9 122.9 213.8 122.8 213.6 122.6 C213.2 122.1 212.8 122.4 212.8 123.2 C212.8 124.0 213.1 124.2 213.5 123.7 C214.2 122.8 214.2 124.3 213.5 125.6 C213.1 126.3 213.0 126.8 213.0 127.3 C213.0 128.0 212.9 128.2 212.5 128.7 C212.1 129.2 212.0 129.6 212.0 130.1 C212.0 130.5 211.9 131.0 211.6 131.4 C211.3 131.7 211.1 132.2 211.1 132.5 C210.9 133.2 210.7 133.6 210.4 134.0 C210.3 134.1 210.1 134.4 210.1 134.6 C209.9 135.2 209.7 135.6 209.2 136.3 C209.0 136.7 208.9 137.0 208.9 137.2 C209.0 137.4 208.9 137.6 208.6 137.9 C208.3 138.2 208.1 138.6 208.0 139.1 C207.9 139.9 207.0 141.5 206.4 142.0 C206.3 142.1 206.1 142.5 206.0 142.9 C205.9 143.3 205.7 143.8 205.5 143.9 C205.3 144.1 205.1 144.5 205.0 144.9 C204.9 145.2 204.4 146.0 203.9 146.6 C203.4 147.2 203.0 147.8 203.0 148.0 C203.0 148.2 202.8 148.5 202.6 148.8 C202.4 149.0 201.9 149.7 201.6 150.3 C201.2 150.9 200.5 152.0 199.9 152.6 C199.4 153.3 198.7 154.2 198.4 154.6 C198.1 155.1 197.5 155.9 197.0 156.5 C196.5 157.1 196.0 157.8 195.8 158.0 C195.0 159.6 183.4 171.3 182.0 171.9 C181.8 172.0 181.0 172.6 180.3 173.2 C178.4 175.0 176.3 176.7 175.8 177.0 C175.5 177.1 174.9 177.5 174.4 178.0 C173.8 178.4 173.2 178.9 172.9 179.0 C172.6 179.1 171.9 179.6 171.3 180.1 C170.7 180.6 170.0 181.0 169.8 181.0 C169.6 181.0 169.2 181.2 168.9 181.5 C168.1 182.2 167.5 182.6 166.7 183.0 C166.3 183.2 166.0 183.4 165.9 183.6 C165.7 183.7 165.4 183.9 165.1 183.9 C164.8 184.0 164.3 184.2 164.1 184.4 C163.6 184.9 161.9 186.0 161.6 186.0 C161.5 186.0 161.1 186.2 160.7 186.5 C160.3 186.8 159.8 187.0 159.7 187.0 C159.5 187.0 159.1 187.2 158.8 187.5 C158.4 187.8 157.9 188.0 157.7 188.0 C157.5 188.0 157.1 188.2 156.9 188.4 C156.6 188.6 156.1 188.9 155.7 189.0 C155.4 189.1 154.8 189.3 154.5 189.6 C154.1 189.9 153.7 190.0 153.2 190.0 C152.7 190.0 152.4 190.1 151.9 190.5 C151.6 190.8 151.1 191.0 150.8 191.0 C150.6 191.0 150.1 191.2 149.9 191.4 C149.3 191.9 148.8 192.1 148.3 191.9 C148.0 191.8 148.0 191.8 148.4 191.5 C148.8 191.1 148.6 190.8 147.9 190.8 C147.0 190.8 146.9 191.3 147.8 191.7 C147.9 191.8 147.8 191.9 147.7 191.9 C147.6 192.0 147.3 192.2 146.9 192.5 C146.6 192.7 146.1 193.0 145.7 193.1 C145.4 193.1 144.8 193.3 144.5 193.6 C144.1 193.9 143.7 194.0 143.2 194.0 C142.6 194.0 142.2 194.1 141.6 194.5 C141.1 194.8 140.5 195.0 140.1 195.0 C139.8 195.0 139.1 195.2 138.6 195.5 C137.9 195.9 137.5 196.0 136.0 196.1 C134.6 196.1 134.0 196.3 133.6 196.5 C133.1 196.8 132.6 196.9 129.6 196.9 L126.2 197.1 L125.8 197.5 C125.4 198.0 125.3 198.0 123.9 198.0 L122.4 198.0 L121.2 196.7 Z M155.1 152.7 C155.5 151.7 155.1 143.4 154.6 143.5 C154.5 143.6 154.4 152.5 154.6 152.8 C154.7 153.1 154.9 153.0 155.1 152.7 Z"/></svg>